<?xml version="1.0" encoding="UTF-8"?>
<svg xmlns="http://www.w3.org/2000/svg" xmlns:xlink="http://www.w3.org/1999/xlink" width="28pt" height="28pt" viewBox="0 0 28 28" version="1.1">
<g id="surface1">
<path style=" stroke:none;fill-rule:nonzero;fill:rgb(0%,0%,0%);fill-opacity:1;" d="M 14 5.871094 C 14.996094 5.871094 15.804688 5.0625 15.804688 4.066406 C 15.804688 3.066406 14.996094 2.257812 14 2.257812 C 13.003906 2.257812 12.195312 3.066406 12.195312 4.066406 C 12.195312 5.0625 13.003906 5.871094 14 5.871094 Z M 14 3.160156 C 14.5 3.160156 14.902344 3.566406 14.902344 4.066406 C 14.902344 4.5625 14.5 4.96875 14 4.96875 C 13.5 4.96875 13.097656 4.5625 13.097656 4.066406 C 13.097656 3.566406 13.5 3.160156 14 3.160156 Z M 14 3.160156 "/>
<path style=" stroke:none;fill-rule:nonzero;fill:rgb(0%,0%,0%);fill-opacity:1;" d="M 26.390625 21.761719 L 23.484375 20.890625 L 23.484375 20.203125 C 24.324219 19.617188 24.839844 18.644531 24.839844 17.613281 L 24.839844 16.257812 C 24.839844 14.515625 23.421875 13.097656 21.675781 13.097656 C 19.933594 13.097656 18.515625 14.515625 18.515625 16.257812 L 18.515625 17.613281 C 18.515625 18.644531 19.027344 19.617188 19.871094 20.203125 L 19.871094 20.890625 L 17.839844 21.5 L 15.804688 20.890625 L 15.804688 20.203125 C 16.648438 19.617188 17.160156 18.644531 17.160156 17.613281 L 17.160156 16.257812 C 17.160156 14.515625 15.742188 13.097656 14 13.097656 C 12.257812 13.097656 10.839844 14.515625 10.839844 16.257812 L 10.839844 17.613281 C 10.839844 18.644531 11.351562 19.617188 12.195312 20.203125 L 12.195312 20.890625 L 10.160156 21.5 L 8.128906 20.890625 L 8.128906 20.203125 C 8.972656 19.617188 9.484375 18.644531 9.484375 17.613281 L 9.484375 16.257812 C 9.484375 14.515625 8.066406 13.097656 6.324219 13.097656 C 4.578125 13.097656 3.160156 14.515625 3.160156 16.257812 L 3.160156 17.613281 C 3.160156 18.644531 3.675781 19.617188 4.515625 20.203125 L 4.515625 20.890625 L 1.609375 21.761719 C 0.648438 22.050781 0 22.917969 0 23.925781 L 0 28 L 28 28 L 28 23.925781 C 28 22.917969 27.351562 22.050781 26.390625 21.761719 Z M 21.675781 14 C 22.769531 14 23.679688 14.777344 23.890625 15.804688 L 22.6875 15.804688 C 22.097656 15.804688 21.503906 15.667969 20.976562 15.402344 L 20.683594 15.257812 L 20.453125 15.488281 C 20.253906 15.691406 19.972656 15.804688 19.683594 15.804688 L 19.464844 15.804688 C 19.675781 14.777344 20.585938 14 21.675781 14 Z M 19.417969 17.613281 L 19.417969 16.710938 L 19.683594 16.710938 C 20.105469 16.710938 20.507812 16.578125 20.847656 16.335938 C 21.425781 16.582031 22.058594 16.710938 22.6875 16.710938 L 23.933594 16.710938 L 23.933594 17.613281 C 23.933594 18.414062 23.503906 19.164062 22.804688 19.566406 L 22.582031 19.695312 L 22.582031 20.984375 L 21.675781 21.585938 L 20.773438 20.984375 L 20.773438 19.695312 L 20.546875 19.566406 C 19.851562 19.164062 19.417969 18.414062 19.417969 17.613281 Z M 14 14 C 15.089844 14 16.003906 14.777344 16.210938 15.804688 L 15.007812 15.804688 C 14.417969 15.804688 13.828125 15.667969 13.296875 15.402344 L 13.007812 15.257812 L 12.777344 15.488281 C 12.574219 15.691406 12.292969 15.804688 12.007812 15.804688 L 11.789062 15.804688 C 11.996094 14.777344 12.910156 14 14 14 Z M 11.742188 17.613281 L 11.742188 16.710938 L 12.007812 16.710938 C 12.429688 16.710938 12.832031 16.578125 13.167969 16.335938 C 13.75 16.582031 14.378906 16.710938 15.007812 16.710938 L 16.257812 16.710938 L 16.257812 17.613281 C 16.257812 18.414062 15.824219 19.164062 15.128906 19.566406 L 14.902344 19.695312 L 14.902344 20.984375 L 14 21.585938 L 13.097656 20.984375 L 13.097656 19.695312 L 12.871094 19.566406 C 12.175781 19.164062 11.742188 18.414062 11.742188 17.613281 Z M 12.570312 21.71875 L 14 22.671875 L 15.429688 21.71875 L 18.453125 22.625 C 19.03125 22.800781 19.417969 23.320312 19.417969 23.925781 L 19.417969 27.097656 L 8.582031 27.097656 L 8.582031 23.925781 C 8.582031 23.320312 8.96875 22.800781 9.546875 22.625 Z M 6.324219 14 C 7.414062 14 8.324219 14.777344 8.535156 15.804688 L 8.316406 15.804688 C 8.027344 15.804688 7.746094 15.691406 7.546875 15.488281 L 7.316406 15.257812 L 7.023438 15.402344 C 6.496094 15.667969 5.902344 15.804688 5.3125 15.804688 L 4.109375 15.804688 C 4.320312 14.777344 5.230469 14 6.324219 14 Z M 4.066406 17.613281 L 4.066406 16.710938 L 5.3125 16.710938 C 5.941406 16.710938 6.574219 16.582031 7.152344 16.335938 C 7.492188 16.578125 7.894531 16.710938 8.316406 16.710938 L 8.582031 16.710938 L 8.582031 17.613281 C 8.582031 18.414062 8.148438 19.164062 7.453125 19.566406 L 7.226562 19.695312 L 7.226562 20.984375 L 6.324219 21.585938 L 5.417969 20.984375 L 5.417969 19.695312 L 5.195312 19.566406 C 4.496094 19.164062 4.066406 18.414062 4.066406 17.613281 Z M 0.902344 23.925781 C 0.902344 23.320312 1.292969 22.800781 1.867188 22.625 L 4.894531 21.71875 L 6.324219 22.671875 L 7.75 21.71875 L 8.738281 22.015625 C 8.089844 22.417969 7.675781 23.128906 7.675781 23.925781 L 7.675781 27.097656 L 0.902344 27.097656 Z M 27.097656 27.097656 L 20.324219 27.097656 L 20.324219 23.925781 C 20.324219 23.128906 19.910156 22.417969 19.261719 22.015625 L 20.25 21.71875 L 21.675781 22.671875 L 23.105469 21.71875 L 26.132812 22.625 C 26.707031 22.800781 27.097656 23.320312 27.097656 23.925781 Z M 27.097656 27.097656 "/>
<path style=" stroke:none;fill-rule:nonzero;fill:rgb(0%,0%,0%);fill-opacity:1;" d="M 4.96875 10.839844 C 5.097656 10.839844 5.222656 10.902344 5.292969 11.011719 L 6.324219 12.554688 L 7.351562 11.011719 C 7.425781 10.902344 7.546875 10.839844 7.675781 10.839844 L 12.644531 10.839844 C 12.777344 10.839844 12.898438 10.902344 12.972656 11.011719 L 14 12.554688 L 15.027344 11.011719 C 15.101562 10.902344 15.222656 10.839844 15.355469 10.839844 L 20.324219 10.839844 C 20.453125 10.839844 20.574219 10.902344 20.648438 11.011719 L 21.675781 12.554688 L 22.707031 11.011719 C 22.777344 10.902344 22.902344 10.839844 23.03125 10.839844 C 25.023438 10.839844 26.644531 9.21875 26.644531 7.226562 C 26.644531 5.234375 25.023438 3.613281 23.03125 3.613281 L 18.066406 3.613281 L 18.066406 3.289062 L 17.480469 3.09375 C 17.402344 2.8125 17.292969 2.542969 17.148438 2.292969 L 17.421875 1.738281 L 16.324219 0.640625 L 15.773438 0.917969 C 15.519531 0.773438 15.25 0.664062 14.972656 0.585938 L 14.777344 0 L 13.222656 0 L 13.027344 0.585938 C 12.75 0.660156 12.480469 0.773438 12.226562 0.917969 L 11.675781 0.640625 L 10.578125 1.738281 L 10.851562 2.292969 C 10.710938 2.542969 10.597656 2.8125 10.519531 3.09375 L 9.933594 3.289062 L 9.933594 3.613281 L 4.96875 3.613281 C 2.976562 3.613281 1.355469 5.234375 1.355469 7.226562 C 1.355469 9.21875 2.976562 10.839844 4.96875 10.839844 Z M 10.839844 3.9375 L 11.292969 3.789062 L 11.34375 3.53125 C 11.414062 3.183594 11.546875 2.859375 11.742188 2.566406 L 11.890625 2.347656 L 11.675781 1.917969 L 11.855469 1.738281 L 12.28125 1.953125 L 12.5 1.808594 C 12.796875 1.613281 13.121094 1.476562 13.464844 1.40625 L 13.722656 1.355469 L 13.875 0.902344 L 14.125 0.902344 L 14.277344 1.355469 L 14.535156 1.40625 C 14.878906 1.476562 15.203125 1.613281 15.5 1.808594 L 15.71875 1.953125 L 16.148438 1.738281 L 16.324219 1.917969 L 16.109375 2.347656 L 16.257812 2.566406 C 16.453125 2.859375 16.585938 3.183594 16.65625 3.53125 L 16.707031 3.789062 L 17.160156 3.9375 L 17.160156 4.191406 L 16.707031 4.339844 L 16.65625 4.597656 C 16.585938 4.945312 16.453125 5.269531 16.257812 5.566406 L 16.109375 5.78125 L 16.324219 6.210938 L 16.144531 6.390625 L 15.71875 6.175781 L 15.5 6.320312 C 15.203125 6.519531 14.878906 6.652344 14.535156 6.722656 L 14.277344 6.773438 L 14.125 7.226562 L 13.875 7.226562 L 13.722656 6.773438 L 13.464844 6.722656 C 13.121094 6.652344 12.796875 6.515625 12.5 6.320312 L 12.28125 6.175781 L 11.851562 6.390625 L 11.675781 6.210938 L 11.890625 5.78125 L 11.742188 5.5625 C 11.546875 5.269531 11.414062 4.945312 11.34375 4.597656 L 11.292969 4.339844 L 10.839844 4.191406 Z M 4.96875 4.515625 L 9.933594 4.515625 L 9.933594 4.84375 L 10.519531 5.035156 C 10.597656 5.316406 10.707031 5.585938 10.851562 5.835938 L 10.578125 6.390625 L 11.675781 7.488281 L 12.226562 7.210938 C 12.480469 7.355469 12.75 7.464844 13.027344 7.542969 L 13.222656 8.128906 L 14.777344 8.128906 L 14.972656 7.542969 C 15.25 7.46875 15.519531 7.355469 15.773438 7.210938 L 16.324219 7.488281 L 17.421875 6.390625 L 17.148438 5.835938 C 17.289062 5.585938 17.402344 5.316406 17.480469 5.035156 L 18.066406 4.84375 L 18.066406 4.515625 L 23.03125 4.515625 C 24.527344 4.515625 25.742188 5.730469 25.742188 7.226562 C 25.742188 8.71875 24.527344 9.933594 23.03125 9.933594 C 22.597656 9.933594 22.195312 10.152344 21.953125 10.511719 L 21.675781 10.925781 L 21.402344 10.511719 C 21.160156 10.152344 20.757812 9.933594 20.324219 9.933594 L 15.355469 9.933594 C 14.921875 9.933594 14.515625 10.152344 14.277344 10.511719 L 14 10.925781 L 13.722656 10.511719 C 13.484375 10.152344 13.078125 9.933594 12.644531 9.933594 L 7.675781 9.933594 C 7.242188 9.933594 6.839844 10.152344 6.597656 10.511719 L 6.324219 10.925781 L 6.046875 10.511719 C 5.804688 10.152344 5.402344 9.933594 4.96875 9.933594 C 3.472656 9.933594 2.257812 8.71875 2.257812 7.226562 C 2.257812 5.730469 3.472656 4.515625 4.96875 4.515625 Z M 4.96875 4.515625 "/>
<path style=" stroke:none;fill-rule:nonzero;fill:rgb(0%,0%,0%);fill-opacity:1;" d="M 4.066406 6.773438 L 4.96875 6.773438 L 4.96875 7.675781 L 4.066406 7.675781 Z M 4.066406 6.773438 "/>
<path style=" stroke:none;fill-rule:nonzero;fill:rgb(0%,0%,0%);fill-opacity:1;" d="M 5.871094 6.773438 L 6.773438 6.773438 L 6.773438 7.675781 L 5.871094 7.675781 Z M 5.871094 6.773438 "/>
<path style=" stroke:none;fill-rule:nonzero;fill:rgb(0%,0%,0%);fill-opacity:1;" d="M 7.675781 6.773438 L 8.582031 6.773438 L 8.582031 7.675781 L 7.675781 7.675781 Z M 7.675781 6.773438 "/>
<path style=" stroke:none;fill-rule:nonzero;fill:rgb(0%,0%,0%);fill-opacity:1;" d="M 19.417969 6.773438 L 20.324219 6.773438 L 20.324219 7.675781 L 19.417969 7.675781 Z M 19.417969 6.773438 "/>
<path style=" stroke:none;fill-rule:nonzero;fill:rgb(0%,0%,0%);fill-opacity:1;" d="M 21.226562 6.773438 L 22.128906 6.773438 L 22.128906 7.675781 L 21.226562 7.675781 Z M 21.226562 6.773438 "/>
<path style=" stroke:none;fill-rule:nonzero;fill:rgb(0%,0%,0%);fill-opacity:1;" d="M 23.03125 6.773438 L 23.933594 6.773438 L 23.933594 7.675781 L 23.03125 7.675781 Z M 23.03125 6.773438 "/>
</g>
</svg>
